name C:/MyDriveSym/Projects/mobilecap/Data\Session20210827_0002\mocap\ForceDataProcessed\walkingTS1_forces.mot
datacolumns 19
datarows 22
range 1.47700000 1.48750000
endheader 
time	R_ground_force_vx	R_ground_force_vy	R_ground_force_vz	R_ground_force_px	R_ground_force_py	R_ground_force_pz	R_ground_torque_x	R_ground_torque_y	R_ground_torque_z	L_ground_force_vx	L_ground_force_vy	L_ground_force_vz	L_ground_force_px	L_ground_force_py	L_ground_force_pz	L_ground_torque_x	L_ground_torque_y	L_ground_torque_z	
          1.47700000	          0.00000000	          0.00000000	          0.00000000	          0.99463100	          0.00000000	         -0.17748300	          0.00000000	          0.00000000	          0.00000000	         10.40941800	        558.71719800	         11.69779500	          0.91953600	          0.00600000	         -0.31507700	          0.00000000	          1.81139000	          0.00000000	
          1.47750000	          0.00000000	          0.00000000	          0.00000000	          0.99573700	          0.00000000	         -0.17748500	          0.00000000	          0.00000000	          0.00000000	         10.56117800	        558.77588600	         11.71493000	          0.91966600	          0.00600000	         -0.31508100	          0.00000000	          1.81789300	          0.00000000	
          1.47800000	          0.00000000	          0.00000000	          0.00000000	          0.99684300	          0.00000000	         -0.17748600	          0.00000000	          0.00000000	          0.00000000	         10.71313500	        558.83563500	         11.73250200	          0.91979600	          0.00600000	         -0.31508600	          0.00000000	          1.82437600	          0.00000000	
          1.47850000	          0.00000000	          0.00000000	          0.00000000	          0.99794900	          0.00000000	         -0.17748800	          0.00000000	          0.00000000	          0.00000000	         10.86529300	        558.89645800	         11.75051500	          0.91992600	          0.00600000	         -0.31509100	          0.00000000	          1.83083700	          0.00000000	
          1.47900000	          0.00000000	          0.00000000	          0.00000000	          0.99905500	          0.00000000	         -0.17749000	          0.00000000	          0.00000000	          0.00000000	         11.01765600	        558.95836800	         11.76897200	          0.92005600	          0.00600000	         -0.31509500	          0.00000000	          1.83727900	          0.00000000	
          1.47950000	          0.00000000	          0.00000000	          0.00000000	          1.00016100	          0.00000000	         -0.17749200	          0.00000000	          0.00000000	          0.00000000	         11.17022800	        559.02137900	         11.78787500	          0.92018600	          0.00600000	         -0.31510000	          0.00000000	          1.84369900	          0.00000000	
          1.48000000	          0.00000000	          0.00000000	          0.00000000	          1.00126700	          0.00000000	         -0.17749400	          0.00000000	          0.00000000	          0.00000000	         11.32301400	        559.08550300	         11.80722700	          0.92031600	          0.00600000	         -0.31510500	          0.00000000	          1.85009900	          0.00000000	
          1.48050000	          0.00000000	          0.00000000	          0.00000000	          1.00237400	          0.00000000	         -0.17749600	          0.00000000	          0.00000000	          0.00000000	         11.47601600	        559.15075300	         11.82703000	          0.92044600	          0.00600000	         -0.31510900	          0.00000000	          1.85647900	          0.00000000	
          1.48100000	          0.00000000	          0.00000000	          0.00000000	          1.00348000	          0.00000000	         -0.17749700	          0.00000000	          0.00000000	          0.00000000	         11.62923900	        559.21714300	         11.84728800	          0.92057600	          0.00600000	         -0.31511400	          0.00000000	          1.86283800	          0.00000000	
          1.48150000	          0.00000000	          0.00000000	          0.00000000	          1.00458600	          0.00000000	         -0.17749900	          0.00000000	          0.00000000	          0.00000000	         11.78268800	        559.28468700	         11.86800300	          0.92070600	          0.00600000	         -0.31511900	          0.00000000	          1.86917700	          0.00000000	
          1.48200000	          0.00000000	          0.00000000	          0.00000000	          1.00569200	          0.00000000	         -0.17750100	          0.00000000	          0.00000000	          0.00000000	         11.93636600	        559.35339700	         11.88917700	          0.92083600	          0.00600000	         -0.31512400	          0.00000000	          1.87549500	          0.00000000	
          1.48250000	          0.00000000	          0.00000000	          0.00000000	          1.00679800	          0.00000000	         -0.17750300	          0.00000000	          0.00000000	          0.00000000	         12.09027700	        559.42328800	         11.91081400	          0.92096600	          0.00600000	         -0.31512900	          0.00000000	          1.88179300	          0.00000000	
          1.48300000	          0.00000000	          0.00000000	          0.00000000	          1.00790400	          0.00000000	         -0.17750500	          0.00000000	          0.00000000	          0.00000000	         12.24442400	        559.49437200	         11.93291500	          0.92109600	          0.00600000	         -0.31513300	          0.00000000	          1.88807100	          0.00000000	
          1.48350000	          0.00000000	          0.00000000	          0.00000000	          1.00901000	          0.00000000	         -0.17750700	          0.00000000	          0.00000000	          0.00000000	         12.39881400	        559.56666500	         11.95548400	          0.92122600	          0.00600000	         -0.31513800	          0.00000000	          1.89432900	          0.00000000	
          1.48400000	          0.00000000	          0.00000000	          0.00000000	          1.01011600	          0.00000000	         -0.17750800	          0.00000000	          0.00000000	          0.00000000	         12.55344800	        559.64017900	         11.97852200	          0.92135600	          0.00600000	         -0.31514300	          0.00000000	          1.90056600	          0.00000000	
          1.48450000	          0.00000000	          0.00000000	          0.00000000	          1.01122200	          0.00000000	         -0.17751000	          0.00000000	          0.00000000	          0.00000000	         12.70833100	        559.71492800	         12.00203300	          0.92148600	          0.00600000	         -0.31514800	          0.00000000	          1.90678400	          0.00000000	
          1.48500000	          0.00000000	          0.00000000	          0.00000000	          1.01232900	          0.00000000	         -0.17751200	          0.00000000	          0.00000000	          0.00000000	         12.86346800	        559.79092600	         12.02601900	          0.92161600	          0.00600000	         -0.31515300	          0.00000000	          1.91298100	          0.00000000	
          1.48550000	          0.00000000	          0.00000000	          0.00000000	          1.01343500	          0.00000000	         -0.17751400	          0.00000000	          0.00000000	          0.00000000	         13.01886200	        559.86818800	         12.05048200	          0.92174700	          0.00600000	         -0.31515700	          0.00000000	          1.91915800	          0.00000000	
          1.48600000	          0.00000000	          0.00000000	          0.00000000	          1.01454100	          0.00000000	         -0.17751600	          0.00000000	          0.00000000	          0.00000000	         13.17451700	        559.94672700	         12.07542500	          0.92187700	          0.00600000	         -0.31516200	          0.00000000	          1.92531500	          0.00000000	
          1.48650000	          0.00000000	          0.00000000	          0.00000000	          1.01564700	          0.00000000	         -0.17751800	          0.00000000	          0.00000000	          0.00000000	         13.33043800	        560.02655700	         12.10085000	          0.92200700	          0.00600000	         -0.31516700	          0.00000000	          1.93145300	          0.00000000	
          1.48700000	          0.00000000	          0.00000000	          0.00000000	          1.01675300	          0.00000000	         -0.17751900	          0.00000000	          0.00000000	          0.00000000	         13.48662800	        560.10769200	         12.12676000	          0.92213700	          0.00600000	         -0.31517200	          0.00000000	          1.93757000	          0.00000000	
          1.48750000	          0.00000000	          0.00000000	          0.00000000	          1.01785900	          0.00000000	         -0.17752100	          0.00000000	          0.00000000	          0.00000000	         13.64309100	        560.19014600	         12.15315800	          0.92226700	          0.00600000	         -0.31517700	          0.00000000	          1.94366800	          0.00000000	
